HIERARCHY
ROOT Hips
{
	OFFSET 0.00000 0.00000 0.00000
	CHANNELS 6 Xposition Yposition Zposition Yrotation Zrotation Xrotation 
	JOINT Lumbar
	{
		OFFSET 0 0 0
		CHANNELS 3 Zrotation Xrotation Yrotation
		JOINT Neck
		{
			OFFSET 0.00 0.2701 0.00
			CHANNELS 3 Zrotation Xrotation Yrotation
			End Site
			{
				OFFSET 0.00 0.1379 0.00
			}
		}
		JOINT RightShoulder
		{
			OFFSET 0.0119 0.2289 0.1181
			CHANNELS 3 Zrotation Xrotation Yrotation
			JOINT RightElbow
			{
				OFFSET 0.00 -0.1475 0.00
				CHANNELS 2 Zrotation Yrotation
				JOINT RightWrist
				{
					OFFSET 0.00 -0.1605 0.00
					CHANNELS 2 Zrotation Xrotation
					End Site
					{
						OFFSET 0.0040 -0.1068 0.0006
					}
				}
			}
		}
		JOINT LeftShoulder
		{
			OFFSET 0.0119 0.2289 -0.1181
			CHANNELS 3 Zrotation Xrotation Yrotation
			JOINT LeftElbow
			{
				OFFSET 0.00 -0.1475 0.00
				CHANNELS 2 Zrotation Yrotation
				JOINT LeftWrist
				{
					OFFSET 0.00 -0.1605 0.00
					CHANNELS 2 Zrotation Xrotation
					End Site
					{
						OFFSET 0.0040 -0.1068 -0.0006
					}
				}
			}
		}
	}
	JOINT RightHip
	{
		OFFSET 0.0316 -0.0424 0.0458
		CHANNELS 3 Zrotation Xrotation Yrotation
		JOINT RightKnee
		{
			OFFSET 0.00 -0.2438 0.00
			CHANNELS 1 Zrotation
			JOINT RightAnkle
			{
				OFFSET 0.00 -0.2449 0.00
				CHANNELS 3 Zrotation Xrotation Yrotation
				End Site
				{
					OFFSET 0.1237 -0.0542 0.0051
				}
			}
		}
	}
	JOINT LeftHip
	{
		OFFSET 0.0316 -0.0424 -0.0458
		CHANNELS 3 Zrotation Xrotation Yrotation
		JOINT LeftKnee
		{
			OFFSET 0.00 -0.2438 0.00
			CHANNELS 1 Zrotation
			JOINT LeftAnkle
			{
				OFFSET 0.00 -0.2449 0.00
				CHANNELS 3 Zrotation Xrotation Yrotation
				End Site
				{
					OFFSET 0.1237 -0.0542 -0.0051
				}
			}
		}
	}
}
MOTION
Frames: 16
Frame Time: 0.02
0.00028 -0.00017 -4e-05 -166.71915 -41.28335 -1.51375 48.44818 2.76544 -3.72726 2.10853 -0.78965 -0.50722 -19.23973 -8.48977 -3.47938 35.42956 90.31146 4.45363 1.43429 -28.87534 10.52034 -0.00401 49.65344 -99.01039 9.97054 -2.0868 46.62928 -2.5548 -7.76347 -18.88512 -7.02989 -0.48733 -2.50635 49.02965 4.68231 3.7797 -24.57746 -6.71681 1.4358 2.9417
0.00012 -0.00018 -7e-05 -166.69634 -41.3036 -1.50172 48.44127 2.76129 -3.70297 2.2672 -0.80102 -0.5087 -18.70301 -8.76131 -3.22951 35.56866 90.24995 4.43594 1.43228 -27.99422 10.60061 -0.11881 49.72508 -98.77634 9.83754 -2.08401 46.63451 -2.54641 -7.71938 -18.88232 -7.02213 -0.49587 -2.51104 49.03606 4.70033 3.85845 -24.57439 -6.71601 1.43243 2.93974
-4e-05 -0.00019 -0.00011 -166.67352 -41.32383 -1.48971 48.43438 2.75716 -3.6788 2.4255 -0.81236 -0.51017 -18.16766 -9.03215 -2.98033 35.70741 90.18859 4.41831 1.43026 -27.1152 10.68058 -0.23324 49.79655 -98.54279 9.70475 -2.08122 46.63974 -2.53804 -7.67538 -18.87953 -7.01437 -0.5044 -2.51572 49.04248 4.71837 3.9373 -24.57132 -6.71522 1.42902 2.93776
-0.00021 -0.00019 -0.00015 -166.65077 -41.34402 -1.47771 48.42749 2.75303 -3.6546 2.58371 -0.82369 -0.51164 -17.63252 -9.30287 -2.73121 35.84609 90.12724 4.40068 1.42825 -26.23665 10.76058 -0.34768 49.86798 -98.30941 9.57212 -2.07843 46.64496 -2.52968 -7.63142 -18.87673 -7.00662 -0.51291 -2.52039 49.04888 4.73635 4.01587 -24.56826 -6.71441 1.42566 2.93581
-0.00037 -0.0002 -0.00018 -166.62807 -41.36423 -1.46569 48.42059 2.74889 -3.63028 2.74223 -0.83503 -0.51312 -17.0962 -9.57424 -2.48146 35.98508 90.06577 4.38298 1.42625 -25.35636 10.84093 -0.46253 49.93954 -98.07564 9.43938 -2.07566 46.65018 -2.5213 -7.58737 -18.87394 -6.99887 -0.52143 -2.52508 49.05527 4.75427 4.09419 -24.56518 -6.7136 1.42235 2.93387
-0.00054 -0.00021 -0.00022 -166.60501 -41.3845 -1.45372 48.41371 2.74478 -3.60641 2.90006 -0.84637 -0.51459 -16.56297 -9.84393 -2.23348 36.12332 90.00466 4.36549 1.42421 -24.48015 10.9201 -0.57606 50.01079 -97.8426 9.30652 -2.07283 46.65542 -2.51294 -7.54345 -18.87116 -6.99111 -0.52996 -2.52975 49.06174 4.77256 4.17413 -24.56214 -6.71285 1.41874 2.9318
-0.0007 -0.00021 -0.00026 -166.58267 -41.40462 -1.44166 48.40679 2.7406 -3.58166 3.05913 -0.8577 -0.51606 -16.02391 -10.1167 -1.98221 36.26292 89.94285 4.34759 1.42224 -23.59641 11.00148 -0.69209 50.08263 -97.60825 9.17397 -2.07011 46.66063 -2.50457 -7.49935 -18.86834 -6.98336 -0.53847 -2.53444 49.06806 4.79011 4.25082 -24.55904 -6.71197 1.41572 2.93001
-0.00086 -0.00022 -0.00029 -166.55971 -41.42488 -1.42968 48.39993 2.73649 -3.55773 3.21699 -0.86905 -0.51753 -15.49058 -10.38666 -1.73399 36.40127 89.88177 4.3301 1.42022 -22.72012 11.08098 -0.80586 50.15385 -97.37529 9.04126 -2.06731 46.66585 -2.49619 -7.45536 -18.86556 -6.97561 -0.547 -2.53912 49.07449 4.80829 4.3303 -24.55599 -6.7112 1.41219 2.92797
-0.00103 -0.00023 -0.00033 -166.53581 -41.44532 -1.41778 48.39303 2.73245 -3.53476 3.37372 -0.88038 -0.51901 -14.96259 -10.65317 -1.4893 36.53815 89.8212 4.31298 1.4181 -21.85043 11.15756 -0.9167 50.22468 -97.1432 8.90779 -2.06432 46.67115 -2.48784 -7.41173 -18.86284 -6.96784 -0.55555 -2.54377 49.08115 4.82746 4.41412 -24.55301 -6.71062 1.40793 2.92558
-0.00119 -0.00024 -0.00037 -166.51675 -41.46475 -1.40537 48.38602 2.72798 -3.50612 3.53804 -0.89171 -0.52047 -14.39885 -10.93952 -1.22366 36.68364 89.75651 4.29336 1.41641 -20.93522 11.24908 -1.04393 50.29885 -96.90357 8.77698 -2.06214 46.67619 -2.47945 -7.36671 -18.85982 -6.96013 -0.56396 -2.54855 49.08677 4.84159 4.47578 -24.54965 -6.70909 1.40752 2.92506
-0.00135 -0.00024 -0.0004 -166.48789 -41.4863 -1.39408 48.37947 2.72444 -3.48953 3.6856 -0.90309 -0.52196 -13.91382 -11.18397 -1.00267 36.81086 89.70131 4.27925 1.41391 -20.12099 11.31029 -1.13688 50.36529 -96.68152 8.64166 -2.05843 46.68164 -2.47106 -7.32418 -18.85741 -6.95232 -0.57267 -2.55306 49.0944 4.86596 4.58233 -24.54706 -6.70951 1.39921 2.92071
-0.00151 -0.00026 -0.00039 -166.42847 -41.5138 -1.38562 48.37231 2.72308 -3.50575 3.79258 -0.91427 -0.52353 -13.62073 -11.31287 -0.90333 36.88794 89.66584 4.27843 1.40852 -19.54768 11.27779 -1.13193 50.41554 -96.495 8.48544 -2.04912 46.68915 -2.46332 -7.29169 -18.85682 -6.94406 -0.58238 -2.55685 49.10903 4.92208 4.82964 -24.5469 -6.71582 1.36718 2.90472
-0.00167 -0.00027 -0.00038 -166.35993 -41.54337 -1.37835 48.36598 2.72271 -3.53418 3.8815 -0.92556 -0.52512 -13.4119 -11.39976 -0.85008 36.94635 89.64107 4.28346 1.40247 -19.08396 11.21702 -1.09296 50.45691 -96.32903 8.32666 -2.03855 46.69679 -2.4554 -7.26074 -18.85682 -6.93572 -0.59239 -2.56038 49.12528 4.98795 5.11945 -24.54745 -6.724 1.32753 2.88506
-0.00184 -0.00029 -0.00037 -166.2979 -41.57198 -1.3707 48.36043 2.72214 -3.55707 3.97538 -0.93702 -0.5267 -13.17919 -11.50637 -0.77493 37.01377 89.61551 4.28706 1.39709 -18.59176 11.17586 -1.07247 50.49934 -96.16125 8.17417 -2.02945 46.70388 -2.44724 -7.22751 -18.85646 -6.92757 -0.60207 -2.56399 49.13996 5.04678 5.37744 -24.54746 -6.73095 1.29276 2.86786
-0.00197 -0.0003 -0.00036 -166.2257 -41.60089 -1.36232 48.34989 2.72054 -3.57965 4.08378 -0.94756 -0.5283 -12.8826 -11.61054 -0.69942 37.08034 89.57276 4.28565 1.38998 -18.00358 11.10533 -1.04048 50.55514 -95.95947 7.99851 -2.01648 46.71344 -2.44072 -7.20251 -18.85648 -6.91889 -0.6124 -2.56769 49.15865 5.11603 5.68548 -24.54841 -6.73944 1.25223 2.84746
-0.00217 -0.00032 -0.00035 -166.17274 -41.62938 -1.35581 48.35008 2.7213 -3.60616 4.15661 -0.96004 -0.52985 -12.74304 -11.70947 -0.6412 37.14248 89.56836 4.29587 1.38655 -17.64904 11.09023 -1.02272 50.57992 -95.8362 7.87238 -2.01138 46.71741 -2.43037 -7.15875 -18.85587 -6.91117 -0.62165 -2.57122 49.16874 5.16668 5.90288 -24.54756 -6.74525 1.22161 2.83268
